<?xml version="1.0" encoding="utf-8"?>
<!-- Generator: Adobe Illustrator 16.0.0, SVG Export Plug-In . SVG Version: 6.00 Build 0)  -->
<!DOCTYPE svg PUBLIC "-//W3C//DTD SVG 1.1//EN" "http://www.w3.org/Graphics/SVG/1.1/DTD/svg11.dtd">
<svg version="1.1" id="Layer_1" xmlns="http://www.w3.org/2000/svg" xmlns:xlink="http://www.w3.org/1999/xlink" x="0px" y="0px"
	 width="40px" height="60px" viewBox="0 0 40 60" enable-background="new 0 0 40 60" xml:space="preserve">
<g>
	<line fill="#5B1D1D" x1="40" y1="40" x2="40" y2="60"/>
	<line fill="#732B2C" x1="80" y1="60" x2="80" y2="40"/>
	<path fill="#A85959" d="M80,60"/>
	<path fill="#A85959" d="M40,60"/>
	<line fill="#732B2C" x1="40" y1="0" x2="40" y2="20"/>
	<line fill="#A85959" x1="40" y1="20" x2="40" y2="40"/>
	<line fill="#5B1D1D" x1="0" y1="20" x2="0" y2="0"/>
	<line fill="#A85959" x1="0" y1="40" x2="0" y2="20"/>
	<line fill="#732B2C" x1="0" y1="60" x2="0" y2="40"/>
	<path fill="#A85959" d="M0,60"/>
	<polygon fill="#4992A0" points="20,30 0,40 0,60 20,50 	"/>
	<polygon fill="#684B93" points="20,30 20,50 40,60 40,40 	"/>
	<polygon fill="#4D276B" points="0,60 40,60 20,50 	"/>
	<polygon fill="#4992A0" points="20,30 40,20 40,0 20,10 	"/>
	<polygon fill="#4D276B" points="20,30 40,40 40,20 	"/>
	<polygon fill="#684B93" points="20,30 20,10 0,0 0,20 	"/>
	<polygon fill="#4D276B" points="0,40 20,30 0,20 	"/>
	<polygon fill="#4D276B" points="40,0 0,0 20,10 	"/>
</g>
</svg>
