<?xml version="1.0" encoding="utf-8"?>
<!-- Generator: Adobe Illustrator 16.0.0, SVG Export Plug-In . SVG Version: 6.00 Build 0)  -->
<!DOCTYPE svg PUBLIC "-//W3C//DTD SVG 1.1//EN" "http://www.w3.org/Graphics/SVG/1.1/DTD/svg11.dtd">
<svg version="1.1" id="Layer_2" xmlns="http://www.w3.org/2000/svg" xmlns:xlink="http://www.w3.org/1999/xlink" x="0px" y="0px"
	 width="100px" height="100px" viewBox="0 0 100 100" enable-background="new 0 0 100 100" xml:space="preserve">
<g id="interface_-_clock_time_2_">
	<g>
		<path fill="#738096" d="M50,17.999c-17.672,0-32,14.328-32,32.002s14.328,32,32,32c17.674,0,32-14.326,32-32
			S67.674,17.999,50,17.999z M50,78.001c-15.464,0-28-12.537-28-28s12.536-28,28-28c15.465,0,28,12.537,28,28
			S65.465,78.001,50,78.001z M65.999,50.021H50v-16.02c0-1.105-0.895-2-2-2c-1.104,0-2,0.895-2,2v17.914
			c-0.001,0.028-0.009,0.058-0.009,0.086c0,0.412,0.128,0.795,0.347,1.112c0.359,0.535,0.969,0.888,1.662,0.888
			c0.06,0,0.116-0.013,0.175-0.019h17.824c1.108,0,2.011-0.889,2.011-1.981C68.01,50.902,67.107,50.021,65.999,50.021z"/>
	</g>
</g>
</svg>
