<?xml version="1.0" encoding="utf-8"?>
<!-- Generator: Adobe Illustrator 16.0.0, SVG Export Plug-In . SVG Version: 6.00 Build 0)  -->
<!DOCTYPE svg PUBLIC "-//W3C//DTD SVG 1.1//EN" "http://www.w3.org/Graphics/SVG/1.1/DTD/svg11.dtd">
<svg version="1.1" id="Layer_3" xmlns="http://www.w3.org/2000/svg" xmlns:xlink="http://www.w3.org/1999/xlink" x="0px" y="0px"
	 width="100px" height="100px" viewBox="0 0 100 100" enable-background="new 0 0 100 100" xml:space="preserve">
<g id="interface_-_cross_cancel_1_">
	<g>
		<path fill-rule="evenodd" clip-rule="evenodd" fill="#FFFFFF" d="M52.782,50L77.44,25.34c0.77-0.766,0.77-2.012,0-2.781
			c-0.768-0.77-2.014-0.77-2.783,0L50,47.217L25.342,22.559c-0.769-0.77-2.015-0.77-2.783,0s-0.769,2.016,0,2.781L47.217,50
			L22.559,74.658c-0.769,0.768-0.769,2.014,0,2.783s2.015,0.77,2.783,0L50,52.782l24.658,24.659c0.77,0.77,2.016,0.77,2.783,0
			c0.77-0.77,0.77-2.016,0-2.783L52.782,50z"/>
	</g>
</g>
</svg>
