<?xml version="1.0" encoding="utf-8"?>
<!-- Generator: Adobe Illustrator 16.0.0, SVG Export Plug-In . SVG Version: 6.00 Build 0)  -->
<!DOCTYPE svg PUBLIC "-//W3C//DTD SVG 1.1//EN" "http://www.w3.org/Graphics/SVG/1.1/DTD/svg11.dtd">
<svg version="1.1" id="Layer_1" xmlns="http://www.w3.org/2000/svg" xmlns:xlink="http://www.w3.org/1999/xlink" x="0px" y="0px"
	 width="100px" height="100px" viewBox="0 0 100 100" enable-background="new 0 0 100 100" xml:space="preserve">
<g id="interface_-_arrow_top_1_">
	<g>
		<path fill-rule="evenodd" clip-rule="evenodd" fill="#B7B7B7" d="M51.453,38.707c-0.04-0.048-0.074-0.1-0.119-0.145
			c-0.395-0.391-0.914-0.58-1.43-0.573c-0.515-0.004-1.032,0.189-1.424,0.583c-0.043,0.043-0.075,0.093-0.113,0.139L30.53,54.615
			c-0.772,0.775-0.77,2.029,0.009,2.803c0.778,0.768,2.035,0.766,2.809-0.01l16.572-14.776l16.665,14.684
			c0.776,0.771,2.034,0.77,2.809-0.008c0.773-0.775,0.77-2.031-0.01-2.801L51.453,38.707z M73.998,17.996h-48
			c-4.418,0-8,3.582-8,7.998v48.002c0,4.418,3.582,8,8,8h48c4.42,0,8-3.582,8-8V25.994C81.998,21.578,78.418,17.996,73.998,17.996z
			 M77.998,73.996c0,2.209-1.789,4-4,4h-48c-2.209,0-4-1.791-4-4V25.994c0-2.209,1.791-3.998,4-3.998h48c2.211,0,4,1.789,4,3.998
			V73.996z"/>
	</g>
</g>
</svg>
