<?xml version="1.0" encoding="utf-8"?>
<!-- Generator: Adobe Illustrator 16.0.0, SVG Export Plug-In . SVG Version: 6.00 Build 0)  -->
<!DOCTYPE svg PUBLIC "-//W3C//DTD SVG 1.1//EN" "http://www.w3.org/Graphics/SVG/1.1/DTD/svg11.dtd">
<svg version="1.1" id="Layer_2" xmlns="http://www.w3.org/2000/svg" xmlns:xlink="http://www.w3.org/1999/xlink" x="0px" y="0px"
	 width="100px" height="100px" viewBox="0 0 100 100" enable-background="new 0 0 100 100" xml:space="preserve">
<g id="web_-_share_network_2_">
	<g>
		<path fill="#738096" d="M70,56c-3.52,0-6.607,1.823-8.391,4.57l-21.744-9C39.946,51.059,40,50.539,40,50.004
			c0-0.297-0.019-0.59-0.044-0.881l21.69-9.632c1.789,2.716,4.859,4.511,8.354,4.511c5.522,0,10-4.477,10-10.002
			c0-5.52-4.478-10-10-10c-5.521,0-10,4.48-10,10c0,0.587,0.062,1.16,0.158,1.719L38.78,45.215c-1.697-3.105-4.992-5.213-8.78-5.213
			c-5.521,0-10,4.479-10,10.002c0,5.52,4.479,9.998,10,9.998c3.52,0,6.608-1.822,8.391-4.57l21.744,9.002
			C60.055,64.943,60,65.465,60,66c0,5.525,4.479,10,10,10c5.523,0,10-4.475,10-10C80,60.48,75.523,56,70,56z M70,28
			c3.314,0,6,2.688,6,6s-2.686,6-6,6c-3.312,0-6-2.688-6-6S66.688,28,70,28z M30,56c-3.313,0-6-2.686-6-5.998
			C24,46.688,26.687,44,30,44c3.314,0,6,2.688,6,6.002C36,53.314,33.314,56,30,56z M70,72c-3.312,0-6-2.686-6-6c0-3.312,2.688-6,6-6
			c3.314,0,6,2.688,6,6C76,69.314,73.314,72,70,72z"/>
	</g>
</g>
</svg>
