<?xml version="1.0" encoding="utf-8"?>
<!-- Generator: Adobe Illustrator 16.0.0, SVG Export Plug-In . SVG Version: 6.00 Build 0)  -->
<!DOCTYPE svg PUBLIC "-//W3C//DTD SVG 1.1//EN" "http://www.w3.org/Graphics/SVG/1.1/DTD/svg11.dtd">
<svg version="1.1" id="Layer_3" xmlns="http://www.w3.org/2000/svg" xmlns:xlink="http://www.w3.org/1999/xlink" x="0px" y="0px"
	 width="100px" height="100px" viewBox="0 0 100 100" enable-background="new 0 0 100 100" xml:space="preserve">
<g id="logo_-_Twitter">
	<g>
		<path fill="#FFFFFF" d="M76,33.931l4-8l-6,4l-1.166,0.584c-2.385-2.783-5.881-4.584-9.834-4.584c-7.18,0-13,4.82-13,12
			c0,0.977,0.127,2.92,0.332,3.832L50,41.931c0,0-26-4-28-14c0,0-6,10,4,18c0,0-4,1.998-6,0c0,0,0,6,10,12c0,0-4,1.998-6,0
			c0,0,8,7.998,12,7.998c0,0,0,6-18,6c0,0,22.758,14.994,44-1.998c10.799-8.641,13.428-19.586,13.568-27.84
			C75.824,41.073,76,40.026,76,38.931v-1l6-6L76,33.931z"/>
	</g>
</g>
</svg>
