<?xml version="1.0" encoding="utf-8"?>
<!-- Generator: Adobe Illustrator 16.0.0, SVG Export Plug-In . SVG Version: 6.00 Build 0)  -->
<!DOCTYPE svg PUBLIC "-//W3C//DTD SVG 1.1//EN" "http://www.w3.org/Graphics/SVG/1.1/DTD/svg11.dtd">
<svg version="1.1" id="Layer_3" xmlns="http://www.w3.org/2000/svg" xmlns:xlink="http://www.w3.org/1999/xlink" x="0px" y="0px"
	 width="100px" height="100px" viewBox="0 0 100 100" enable-background="new 0 0 100 100" xml:space="preserve">
<g id="interface_-_view_eye_watch">
	<g>
		<path fill="#738096" d="M50,34c-8.836,0-16,7.164-16,16s7.164,16,16,16c8.838,0,16-7.164,16-16S58.838,34,50,34z M50,62
			c-6.627,0-12-5.373-12-12s5.373-12,12-12c6.629,0,12,5.373,12,12S56.629,62,50,62z M50,26c-17.673,0-32,24-32,24s14.327,24,32,24
			c17.674,0,32-24,32-24S67.674,26,50,26z M50,70c-14.359,0-28-20-28-20s13.641-20,28-20c14.359,0,28,20,28,20S64.359,70,50,70z"/>
	</g>
</g>
</svg>
