<?xml version="1.0" encoding="utf-8"?>
<!-- Generator: Adobe Illustrator 16.0.0, SVG Export Plug-In . SVG Version: 6.00 Build 0)  -->
<!DOCTYPE svg PUBLIC "-//W3C//DTD SVG 1.1//EN" "http://www.w3.org/Graphics/SVG/1.1/DTD/svg11.dtd">
<svg version="1.1" id="logo" xmlns="http://www.w3.org/2000/svg" xmlns:xlink="http://www.w3.org/1999/xlink" x="0px" y="0px"
	 width="227px" height="80px" viewBox="0 0 227 80" enable-background="new 0 0 227 80" xml:space="preserve">
<g>
	<path fill="#32033A" d="M69.021,34.239L47.435,12.65c-1.661-1.661-3.847-2.47-6.023-2.439c-2.098,0.029-4.185,0.839-5.784,2.439
		L14.038,34.239c-1.601,1.6-2.41,3.687-2.439,5.785c-0.03,2.174,0.779,4.361,2.439,6.022l21.589,21.589
		c1.6,1.599,3.687,2.41,5.784,2.439c2.176,0.03,4.362-0.779,6.023-2.439l21.587-21.589c1.662-1.661,2.471-3.846,2.44-6.022
		C71.433,37.926,70.621,35.839,69.021,34.239z"/>
	<g>
		<path fill="#3A033D" d="M41.411,10.211c-2.098,0.029-4.185,0.839-5.784,2.439L14.038,34.239c-1.601,1.6-2.41,3.687-2.439,5.785
			h29.812V10.211z"/>
		<path fill="#32033A" d="M71.462,40.024c-0.029-2.098-0.841-4.185-2.44-5.785L47.435,12.65c-1.661-1.661-3.847-2.47-6.023-2.439
			v29.813H71.462z"/>
		<path fill="#32033A" d="M11.599,40.024c-0.03,2.174,0.779,4.361,2.439,6.022l21.589,21.589c1.6,1.599,3.687,2.41,5.784,2.439
			v-30.05H11.599z"/>
		<path fill="#2E0335" d="M41.411,40.024v30.05c2.176,0.03,4.362-0.779,6.023-2.439l21.587-21.589
			c1.662-1.661,2.471-3.846,2.44-6.022H41.411z"/>
	</g>
	<g>
		<g opacity="0.25">
			<path fill="#5439AA" d="M49.941,55.051h-17.06c-4.504,0-8.168-3.744-8.168-8.349c0-4.603,3.664-8.348,8.168-8.348h17.06
				c4.504,0,8.168,3.746,8.168,8.348C58.109,51.307,54.445,55.051,49.941,55.051z M32.882,41.692c-2.662,0-4.829,2.248-4.829,5.01
				c0,2.764,2.167,5.01,4.829,5.01h17.06c2.663,0,4.828-2.246,4.828-5.01c0-2.762-2.165-5.01-4.828-5.01H32.882z"/>
		</g>
		<g opacity="0.5">
			<path fill="#5439AA" d="M49.941,48.373h-17.06c-4.504,0-8.168-3.747-8.168-8.349c0-4.604,3.664-8.349,8.168-8.349h17.06
				c4.504,0,8.168,3.746,8.168,8.349C58.109,44.626,54.445,48.373,49.941,48.373z M32.882,35.014c-2.662,0-4.829,2.248-4.829,5.01
				c0,2.761,2.167,5.009,4.829,5.009h17.06c2.663,0,4.828-2.248,4.828-5.009c0-2.762-2.165-5.01-4.828-5.01H32.882z"/>
		</g>
		<g>
			<path fill="#5439AA" d="M49.941,41.692h-17.06c-4.504,0-8.168-3.744-8.168-8.348c0-4.604,3.664-8.349,8.168-8.349h17.06
				c4.504,0,8.168,3.745,8.168,8.349C58.109,37.948,54.445,41.692,49.941,41.692z M32.882,28.335c-2.662,0-4.829,2.248-4.829,5.01
				s2.167,5.009,4.829,5.009h17.06c2.663,0,4.828-2.247,4.828-5.009s-2.165-5.01-4.828-5.01H32.882z"/>
		</g>
	</g>
	<g>
		<path fill="#FFFFFF" d="M86.381,55.419c-0.271,0-0.451-0.182-0.451-0.451V26.023c0-0.271,0.18-0.451,0.451-0.451h4.147
			c0.271,0,0.451,0.18,0.451,0.451v1.623h0.044c1.038-1.487,2.841-2.57,5.772-2.57c3.696,0,6.401,1.758,7.528,5.23
			c0.542,1.667,0.767,3.201,0.767,6.132c0,2.93-0.225,4.463-0.767,6.132c-1.127,3.472-3.832,5.229-7.528,5.229
			c-2.932,0-4.734-1.082-5.772-2.57h-0.044v9.738c0,0.27-0.181,0.451-0.451,0.451H86.381z M99.5,40.496
			c0.316-0.992,0.452-2.074,0.452-4.057c0-1.984-0.136-3.066-0.452-4.058c-0.586-1.803-1.983-2.795-4.013-2.795
			c-2.073,0-3.471,0.992-4.058,2.795c-0.315,0.992-0.45,2.074-0.45,4.058c0,1.983,0.135,3.065,0.45,4.057
			c0.587,1.803,1.984,2.796,4.058,2.796C97.517,43.292,98.914,42.299,99.5,40.496z"/>
		<path fill="#FFFFFF" d="M109.622,41.804c-0.498-1.533-0.722-2.976-0.722-5.365c0-2.39,0.224-3.833,0.722-5.366
			c1.218-3.788,4.553-5.997,8.971-5.997c4.375,0,7.71,2.209,8.929,5.997c0.495,1.533,0.72,2.976,0.72,5.366
			c0,2.389-0.225,3.832-0.72,5.365c-1.219,3.787-4.554,5.996-8.929,5.996C114.175,47.8,110.84,45.591,109.622,41.804z
			 M122.651,40.451c0.36-1.127,0.451-2.164,0.451-4.012c0-1.849-0.091-2.84-0.451-4.013c-0.631-1.803-2.029-2.84-4.059-2.84
			c-2.028,0-3.47,1.037-4.103,2.84c-0.36,1.173-0.449,2.165-0.449,4.013c0,1.848,0.089,2.885,0.449,4.012
			c0.633,1.803,2.074,2.841,4.103,2.841C120.622,43.292,122.021,42.254,122.651,40.451z"/>
		<path fill="#FFFFFF" d="M138.728,47.573c-4.238,0-5.95-2.028-5.95-6.221V17.096c0-0.27,0.18-0.451,0.45-0.451h4.147
			c0.271,0,0.451,0.181,0.451,0.451v23.986c0,1.488,0.586,1.983,1.895,1.983h0.991c0.271,0,0.45,0.18,0.45,0.45v3.608
			c0,0.27-0.18,0.449-0.45,0.449H138.728z"/>
		<path fill="#FFFFFF" d="M145.354,55.419c-0.271,0-0.451-0.182-0.451-0.451v-3.606c0-0.27,0.181-0.451,0.451-0.451h0.812
			c1.712,0,2.569-0.767,3.245-2.57l0.631-1.849l-7.935-20.468c-0.091-0.271,0.091-0.451,0.36-0.451h4.463
			c0.271,0,0.451,0.18,0.541,0.451l4.914,14.202h0.092l4.688-14.202c0.09-0.271,0.27-0.451,0.54-0.451h4.284
			c0.27,0,0.45,0.18,0.36,0.451l-8.295,22.633c-1.894,5.14-3.697,6.763-7.305,6.763H145.354z"/>
		<path fill="#FFFFFF" d="M166.372,55.419c-0.27,0-0.451-0.182-0.451-0.451V26.023c0-0.271,0.182-0.451,0.451-0.451h4.149
			c0.27,0,0.449,0.18,0.449,0.451v1.623h0.046c1.036-1.487,2.84-2.57,5.77-2.57c3.699,0,6.402,1.758,7.531,5.23
			c0.539,1.667,0.765,3.201,0.765,6.132c0,2.93-0.226,4.463-0.765,6.132c-1.129,3.472-3.832,5.229-7.531,5.229
			c-2.93,0-4.733-1.082-5.77-2.57h-0.046v9.738c0,0.27-0.18,0.451-0.449,0.451H166.372z M179.492,40.496
			c0.316-0.992,0.451-2.074,0.451-4.057c0-1.984-0.135-3.066-0.451-4.058c-0.586-1.803-1.983-2.795-4.013-2.795
			c-2.074,0-3.471,0.992-4.058,2.795c-0.315,0.992-0.451,2.074-0.451,4.058c0,1.983,0.136,3.065,0.451,4.057
			c0.587,1.803,1.983,2.796,4.058,2.796C177.509,43.292,178.906,42.299,179.492,40.496z"/>
	</g>
	<g>
		<path fill="#5439AA" d="M188.431,44.962c0-0.191,0.128-0.318,0.317-0.318h1.555c0.19,0,0.316,0.127,0.316,0.318v2.126
			c0,0.188-0.126,0.315-0.316,0.315h-1.555c-0.189,0-0.317-0.127-0.317-0.315V44.962z"/>
		<path fill="#5439AA" d="M195.5,26.151c0-0.191,0.128-0.318,0.317-0.318h1.174c0.191,0,0.317,0.127,0.317,0.318v20.937
			c0,0.188-0.126,0.315-0.317,0.315h-1.174c-0.189,0-0.317-0.127-0.317-0.315V26.151z"/>
		<path fill="#5439AA" d="M202.416,42.867c-0.381-1.142-0.635-2.537-0.635-6.249s0.254-5.107,0.635-6.25
			c1.047-3.172,3.458-4.854,6.979-4.854c3.489,0,5.899,1.682,6.945,4.854c0.381,1.142,0.636,2.538,0.636,6.25
			s-0.255,5.107-0.636,6.249c-1.046,3.173-3.456,4.854-6.945,4.854C205.874,47.721,203.463,46.04,202.416,42.867z M214.598,30.877
			c-0.794-2.379-2.537-3.648-5.202-3.648c-2.698,0-4.44,1.27-5.234,3.648c-0.285,0.857-0.541,2.252-0.541,5.742
			s0.256,4.886,0.541,5.742c0.794,2.379,2.536,3.648,5.234,3.648c2.665,0,4.408-1.27,5.202-3.648
			c0.283-0.855,0.538-2.252,0.538-5.742S214.881,31.734,214.598,30.877z"/>
	</g>
</g>
</svg>
